Patient4_TMGait_0pt6_02_left_29_EMG.mot
version=1
nRows=20
nColumns=33
inDegrees=no
endheader
time	1LAddLong	2LGlutMax	3LGlutMed	4LIliopsoas	5LSemiMemb	6LBicFemLong	7LRecFem	8LVastMed	9LVastLat	10LGasMed	11LTibAnt	12lTibPost	13LPeroneusLong	14LSol	15LExtDigLong	16LFlexDigLong	17RAddLong	18RGlutMax	19RGlutMed	20RIliopsoas	21RSemiMemb	22RBicFemLong	23RRecFem	24RVastMed	25RVastLat	26RGasMed	27RTibAnt	28RTibPost	29RPeroneusLong	30RSol	31RExtDigLong	32RFlexDigLong
35.46	0.043182	-0.037384	-0.080109	0.031586	-0.022278	-0.05188	-0.033264	0.019836	0.23056	-0.083008	0.0914	0.000305	-0.000763	-0.018768	0.026093	0.015869	0.02594	-0.22095	0.68192	-0.052185	-0.062561	-0.17288	0.090485	-0.18005	-0.07019	0.13519	-0.06897	0.017395	0.78171	-0.043182	-0.002899	-0.01358
35.461	0.027466	-0.075378	-0.072174	0.010681	0.003967	-0.032959	-0.052643	0.02121	0.22186	-0.066528	-0.20691	0.004425	0.045776	-0.030212	-0.018158	-0.00061	0.034332	-0.24384	0.53268	0.005646	-0.039215	-0.088043	0.029297	-0.15472	0.01236	0.080109	0.095978	0.005035	-0.28992	-0.041199	-0.000458	-0.011902
35.462	0.014801	-0.096436	-0.092468	0.015564	0.014038	-0.037384	-0.047455	0.017242	0.23422	-0.045776	-0.26306	0.003204	0.061035	0.044556	0.12741	-0.001831	0.019836	-0.31845	-0.20874	0.066833	-0.21668	0.24963	-0.12741	-0.052032	0.035553	0.070496	0.20645	-0.016937	-1.6318	0.097961	-0.001984	-0.013885
35.463	0.012207	-0.17242	-0.071716	0.024109	0.024261	-0.032654	-0.06073	0.00885	0.24445	-0.065613	-0.29709	0.004425	0.093994	0.1294	0.39322	0.001678	-0.006104	-0.29556	-0.046692	0.092468	-0.44632	0.54916	-0.25177	-0.037079	0.061646	0.054474	0.21439	-0.021515	-0.75028	0.13123	0.000763	-0.009308
35.464	0.01236	-0.21378	-0.054016	-0.013733	0.010986	-0.032959	-0.037842	0.006714	0.2417	-0.034637	-0.022583	0.004425	0.027161	0.073853	0.26154	-0.014954	0.017853	-0.35675	-0.52353	0.09964	-0.38284	0.29938	-0.056458	-0.089874	-0.001831	0.028687	0.015411	-0.03006	1.7818	0.061035	0.002441	-0.002899
35.465	0.023956	-0.2092	-0.043488	-0.009155	-0.026703	-0.049438	-0.056915	0.011444	0.25223	-0.039673	0.005035	0.005341	-0.050201	0.034485	-0.002441	-0.009766	0.004272	-0.40314	-0.21606	0.12711	0.27771	0.18005	0.046234	-0.14267	-0.061951	0.034637	-0.095825	-0.029602	3.0727	-0.23438	0.002594	0.000305
35.466	0.020142	-0.23758	-0.035095	-0.015869	-0.015411	-0.036926	-0.057678	0.00946	0.25314	-0.040588	-0.12711	-0.000153	-0.004425	-0.004425	-0.30991	-0.01358	0.001678	-0.32761	-0.10315	0.075531	0.41351	0.079193	0.050659	-0.19333	-0.054932	0.023499	-0.14038	0.062866	0.80704	-0.38254	0.001221	0.009918
35.467	0.007019	-0.27145	-0.064697	-0.003357	-0.002289	-0.004578	-0.041046	0.008545	0.24445	-0.044403	-0.23148	0.00885	0.14221	0.071411	-0.11154	-0.006104	0.016327	-0.37872	-0.112	0.0177	0.17014	-0.02533	0.040131	-0.20981	-0.043793	-0.051575	-0.097656	0.011292	-1.9821	-0.26016	-0.000916	0.001373
35.468	0.008087	-0.29694	-0.073395	0.009918	-0.014954	0.019379	-0.040283	0.018005	0.24506	-0.002899	-0.1918	-0.001068	0.18646	0.10254	-0.031891	0.001373	0.002899	-0.36606	0.25635	-0.035858	-0.059509	0.032959	-0.007629	-0.1445	-0.0383	-0.14328	-0.12543	-0.021057	-1.5735	-0.085144	0	0.003815
35.469	0.021667	-0.32913	-0.061951	0.018768	-0.000763	0.024719	-0.038452	0.021515	0.2478	0.039673	0.050964	0.003967	0.23941	0.025024	-0.14557	0.004425	-0.003052	-0.37872	0.13245	-0.034485	-0.15991	-0.21393	-0.00061	-0.051117	0.020142	-0.18738	-0.005341	-0.030975	-1.0707	-0.003967	-0.001831	-0.002289
35.47	-0.000153	-0.33859	-0.063171	0.017548	-0.005035	0.009613	-0.051422	0.014343	0.26032	0.044403	0.044708	0.001831	0.19745	-0.039063	0.55603	0.000916	-0.016632	-0.42831	-0.35004	-0.054626	-0.2771	-0.44693	0.08667	-0.015259	0.027924	-0.1709	0.050964	-0.042572	-0.5246	0.022278	0.002136	0.001984
35.471	-0.003357	-0.34424	-0.050507	0.02243	-0.00946	-0.011139	-0.039673	0.010376	0.26688	0.027924	-0.025635	0.004578	0.17227	-0.034027	0.14267	0.001526	0.005188	-0.46112	-0.55512	-0.036163	0.048523	-0.41901	0.18753	0.019073	0.019531	-0.023499	0.027466	-0.049133	0.12543	-0.025024	0.003662	-0.002747
35.472	0.014496	-0.38116	-0.05722	0.018768	-0.012512	-0.002899	-0.048676	0.013428	0.26855	0.044861	0.11765	0.00824	0.072784	0.001373	-0.15198	0.002441	0.015869	-0.41428	-0.43442	-0.064087	0.25406	0.009308	0.26672	-0.1622	-0.15747	0.20752	-0.02121	0.016327	0.79559	0.11017	0.001373	-0.00351
35.473	0.012512	-0.33218	-0.059052	-0.002747	-0.010529	0.008087	-0.033569	0.016174	0.25848	0.051727	0.21042	0.00412	-0.046539	0.13199	-0.20111	-0.003052	0.024109	-0.43793	-0.57938	0.00061	0.12528	0.3331	0.3389	-0.2388	-0.32196	0.20554	-0.024109	0.070038	0.036621	0.11795	-0.000305	-0.010223
35.474	0.00946	-0.31281	-0.072632	-0.007935	-0.003357	-0.032349	-0.050812	0.018158	0.24429	0.02182	0.20783	-0.002289	-0.062561	0.12634	-0.23666	0.006561	-0.000458	-0.42709	-0.38818	0.010071	0.12054	0.4277	0.11505	-0.21439	-0.33875	0.13886	0.069733	-0.013428	-1.0237	0.16434	0.001526	-0.003052
35.475	0.008698	-0.30991	-0.06546	0.00412	-0.005341	-0.027924	-0.042419	0.009003	0.24139	-0.005341	0.11063	0.005188	-0.056152	0.005951	-0.049744	0.009003	-0.027008	-0.23392	-0.010529	-0.11292	0.075684	0.40131	-0.19028	-0.10559	0.17364	-0.009003	0.03891	-0.013733	-0.71793	0.23651	0.001831	-0.007629
35.476	0.008087	-0.28732	-0.056915	0.014496	-0.011444	-0.025024	-0.054474	0.011902	0.23285	0.003967	0.053101	0.005951	-0.030518	-0.061951	0.11566	0.003204	-0.044708	-0.14664	0.16586	-0.014496	0.008698	0.29144	-0.39215	0.10437	0.42435	-0.066681	-0.018768	-0.006561	-0.75028	-0.14343	0.000305	0.000458
35.477	0.024567	-0.31387	-0.057068	0.009155	-0.00351	-0.015564	-0.036469	0.015869	0.23514	-0.013123	0.047607	0.015259	0.037079	-0.085144	-0.037384	0.002136	-0.053711	-0.095825	0.14496	0.09491	0.058136	0.058289	-0.29098	0.22842	0.47836	-0.0354	-0.064087	-0.062561	1.2848	-0.5809	0.001984	-0.014343
35.478	0.022583	-0.32593	-0.054779	-0.001984	-0.018463	-0.016327	-0.040131	0.013275	0.2211	-0.006714	0.057983	-0.00473	0.086975	-0.1178	-0.047455	0.010071	-0.015411	-0.090332	-0.21316	0.11475	0.052032	-0.39368	-0.005035	0.1149	0.51758	-0.018463	0.03006	-0.04776	1.4751	-0.16449	0.001068	-0.013733
35.479	0.012817	-0.29633	-0.061951	0.002899	-0.013733	-0.029449	-0.056915	0.00946	0.22003	0.001526	0.24506	0.00885	0.080261	-0.068512	0.066376	0.000305	0	0.012054	-0.20752	0.078125	0.069427	-0.72189	0.13092	0.089874	0.83389	0.014191	-0.044556	0.072937	1.1121	0.26901	-0.005646	-0.005798
